<svg xmlns="http://www.w3.org/2000/svg" xmlns:xlink="http://www.w3.org/1999/xlink" width="500" zoomAndPan="magnify" viewBox="0 0 375 374.999991" height="500" preserveAspectRatio="xMidYMid meet" version="1.0"><defs><g/><clipPath id="631dbf1085"><path d="M 77 7.625 L 298 7.625 L 298 367.625 L 77 367.625 Z M 77 7.625 " clip-rule="nonzero"/></clipPath><clipPath id="718c25e439"><path d="M 7.625 77 L 367.625 77 L 367.625 298 L 7.625 298 Z M 7.625 77 " clip-rule="nonzero"/></clipPath></defs><g clip-path="url(#631dbf1085)"><path fill="#89c3ff" d="M 207.222656 89.542969 C 213.324219 89.542969 218.894531 92.027344 222.882812 96.09375 C 226.875 100.085938 229.433594 105.65625 229.433594 111.753906 L 229.433594 145.484375 L 278.601562 145.484375 L 278.601562 110.324219 C 278.601562 100.6875 276.492188 90.898438 271.898438 80.886719 C 267.304688 70.871094 260.230469 60.632812 250.367188 50.167969 L 221.980469 21.78125 C 212.496094 12.371094 199.996094 7.625 187.496094 7.625 C 175 7.625 162.5 12.371094 153.015625 21.855469 L 77.796875 97.074219 C 77.875 96.996094 78.023438 96.996094 78.097656 96.921875 C 89.015625 91.953125 99.785156 89.617188 110.324219 89.617188 L 207.222656 89.617188 Z M 167.695312 285.375 C 161.597656 285.375 156.027344 282.890625 152.035156 278.824219 C 148.046875 274.835938 145.484375 269.265625 145.484375 263.164062 L 145.484375 229.433594 L 96.320312 229.433594 L 96.320312 264.597656 C 96.320312 274.234375 98.429688 284.019531 103.019531 294.035156 C 107.613281 304.046875 114.691406 314.289062 124.554688 324.753906 L 152.9375 353.140625 C 162.425781 362.625 174.925781 367.367188 187.421875 367.367188 C 199.921875 367.367188 212.417969 362.625 221.90625 353.140625 L 297.121094 277.921875 C 297.046875 277.996094 296.894531 277.996094 296.820312 278.074219 C 285.902344 283.042969 275.136719 285.375 264.597656 285.375 Z M 167.695312 285.375 " fill-opacity="1" fill-rule="evenodd"/></g><g clip-path="url(#718c25e439)"><path fill="#004aad" d="M 285.375 207.222656 C 285.375 213.324219 282.890625 218.894531 278.824219 222.882812 C 274.835938 226.875 269.265625 229.433594 263.164062 229.433594 L 229.433594 229.433594 L 229.433594 278.601562 L 264.597656 278.601562 C 274.234375 278.601562 284.019531 276.492188 294.035156 271.898438 C 304.046875 267.304688 314.289062 260.230469 324.753906 250.367188 L 353.140625 221.980469 C 362.625 212.496094 367.367188 199.996094 367.367188 187.496094 C 367.367188 175 362.625 162.5 353.140625 153.015625 L 277.921875 77.796875 C 277.996094 77.875 277.996094 78.023438 278.074219 78.097656 C 283.042969 89.015625 285.375 99.785156 285.375 110.324219 Z M 89.542969 167.695312 C 89.542969 161.597656 92.027344 156.027344 96.09375 152.035156 C 100.085938 148.046875 105.65625 145.484375 111.753906 145.484375 L 145.484375 145.484375 L 145.484375 96.320312 L 110.324219 96.320312 C 100.6875 96.320312 90.898438 98.429688 80.886719 103.019531 C 70.871094 107.613281 60.632812 114.691406 50.167969 124.554688 L 21.78125 152.9375 C 12.371094 162.5 7.625 175 7.625 187.496094 C 7.625 199.996094 12.371094 212.496094 21.855469 221.980469 L 97.074219 297.195312 C 96.996094 297.121094 96.996094 296.972656 96.921875 296.894531 C 91.953125 285.980469 89.617188 275.210938 89.617188 264.671875 L 89.617188 167.695312 Z M 89.542969 167.695312 " fill-opacity="1" fill-rule="evenodd"/></g><g fill="#004aad" fill-opacity="1"><g transform="translate(56.159041, 187.576598)"><g><path d="M 4.78125 0.46875 C 3.800781 0.46875 3.070312 0.179688 2.59375 -0.390625 C 2.125 -0.972656 1.890625 -1.738281 1.890625 -2.6875 C 1.890625 -3.5 2.125 -4.226562 2.59375 -4.875 C 3.070312 -5.519531 3.800781 -5.84375 4.78125 -5.84375 C 5.769531 -5.84375 6.5 -5.550781 6.96875 -4.96875 C 7.445312 -4.394531 7.6875 -3.632812 7.6875 -2.6875 C 7.6875 -1.90625 7.445312 -1.179688 6.96875 -0.515625 C 6.5 0.140625 5.769531 0.46875 4.78125 0.46875 Z M 4.78125 0.46875 "/></g></g></g></svg>