<svg xmlns="http://www.w3.org/2000/svg" xmlns:xlink="http://www.w3.org/1999/xlink" width="427" zoomAndPan="magnify" viewBox="0 0 320.25 210.749994" height="281" preserveAspectRatio="xMidYMid meet" version="1.0"><defs><g/><clipPath id="f5e0b4ee2c"><path d="M 123 0.121094 L 196 0.121094 L 196 117.597656 L 123 117.597656 Z M 123 0.121094 " clip-rule="nonzero"/></clipPath><clipPath id="52ac788241"><path d="M 100.820312 23 L 218.296875 23 L 218.296875 95 L 100.820312 95 Z M 100.820312 23 " clip-rule="nonzero"/></clipPath></defs><g clip-path="url(#f5e0b4ee2c)"><path fill="#89c3ff" d="M 166.203125 26.953125 C 168.199219 26.953125 170.023438 27.769531 171.332031 29.101562 C 172.636719 30.40625 173.476562 32.230469 173.476562 34.230469 L 173.476562 45.277344 L 189.582031 45.277344 L 189.582031 33.761719 C 189.582031 30.605469 188.890625 27.398438 187.386719 24.117188 C 185.882812 20.839844 183.5625 17.484375 180.332031 14.054688 L 171.035156 4.757812 C 167.929688 1.675781 163.832031 0.121094 159.738281 0.121094 C 155.644531 0.121094 151.550781 1.675781 148.445312 4.78125 L 123.804688 29.421875 C 123.832031 29.394531 123.878906 29.394531 123.90625 29.371094 C 127.480469 27.742188 131.007812 26.980469 134.460938 26.980469 L 166.203125 26.980469 Z M 153.253906 91.101562 C 151.257812 91.101562 149.429688 90.289062 148.125 88.957031 C 146.816406 87.648438 145.976562 85.824219 145.976562 83.824219 L 145.976562 72.777344 L 129.875 72.777344 L 129.875 84.292969 C 129.875 87.453125 130.5625 90.65625 132.070312 93.9375 C 133.574219 97.21875 135.890625 100.570312 139.121094 104 L 148.417969 113.296875 C 151.527344 116.40625 155.621094 117.957031 159.714844 117.957031 C 163.808594 117.957031 167.902344 116.40625 171.011719 113.296875 L 195.648438 88.660156 C 195.625 88.683594 195.574219 88.683594 195.550781 88.710938 C 191.972656 90.335938 188.445312 91.101562 184.996094 91.101562 Z M 153.253906 91.101562 " fill-opacity="1" fill-rule="evenodd"/></g><g clip-path="url(#52ac788241)"><path fill="#004aad" d="M 191.800781 65.5 C 191.800781 67.5 190.988281 69.324219 189.65625 70.632812 C 188.347656 71.9375 186.523438 72.777344 184.527344 72.777344 L 173.476562 72.777344 L 173.476562 88.882812 L 184.996094 88.882812 C 188.152344 88.882812 191.355469 88.191406 194.636719 86.6875 C 197.917969 85.183594 201.269531 82.863281 204.699219 79.632812 L 213.996094 70.335938 C 217.105469 67.226562 218.660156 63.132812 218.660156 59.039062 C 218.660156 54.945312 217.105469 50.851562 213.996094 47.746094 L 189.359375 23.105469 C 189.382812 23.132812 189.382812 23.179688 189.410156 23.207031 C 191.035156 26.78125 191.800781 30.308594 191.800781 33.761719 Z M 127.652344 52.554688 C 127.652344 50.554688 128.46875 48.730469 129.800781 47.425781 C 131.105469 46.117188 132.933594 45.277344 134.929688 45.277344 L 145.976562 45.277344 L 145.976562 29.175781 L 134.460938 29.175781 C 131.304688 29.175781 128.097656 29.863281 124.816406 31.367188 C 121.539062 32.875 118.183594 35.191406 114.753906 38.421875 L 105.457031 47.71875 C 102.375 50.851562 100.820312 54.945312 100.820312 59.039062 C 100.820312 63.132812 102.375 67.226562 105.480469 70.335938 L 130.121094 94.972656 C 130.09375 94.949219 130.09375 94.898438 130.070312 94.875 C 128.441406 91.296875 127.679688 87.773438 127.679688 84.320312 L 127.679688 52.554688 Z M 127.652344 52.554688 " fill-opacity="1" fill-rule="evenodd"/></g><g fill="#51a6ff" fill-opacity="1"><g transform="translate(59.463889, 197.696938)"><g><path d="M 4.421875 -8.828125 C 5.160156 -8.828125 5.78125 -8.703125 6.28125 -8.453125 C 6.789062 -8.210938 7.164062 -7.867188 7.40625 -7.421875 C 7.65625 -6.972656 7.78125 -6.457031 7.78125 -5.875 C 7.78125 -5.332031 7.660156 -4.828125 7.421875 -4.359375 C 7.191406 -3.898438 6.851562 -3.53125 6.40625 -3.25 C 5.957031 -2.976562 5.429688 -2.84375 4.828125 -2.84375 L 2.9375 -2.84375 L 2.9375 0 L 0.84375 0 L 0.84375 -8.828125 Z M 4.40625 -4.734375 C 4.757812 -4.734375 5.054688 -4.832031 5.296875 -5.03125 C 5.546875 -5.226562 5.671875 -5.492188 5.671875 -5.828125 C 5.671875 -6.203125 5.550781 -6.476562 5.3125 -6.65625 C 5.082031 -6.84375 4.78125 -6.9375 4.40625 -6.9375 L 2.9375 -6.9375 L 2.9375 -4.734375 Z M 4.40625 -4.734375 "/></g></g></g><g fill="#51a6ff" fill-opacity="1"><g transform="translate(70.221502, 197.696938)"><g><path d="M 5.15625 -9.03125 C 6.007812 -9.03125 6.796875 -8.820312 7.515625 -8.40625 C 8.242188 -8 8.820312 -7.441406 9.25 -6.734375 C 9.675781 -6.023438 9.890625 -5.253906 9.890625 -4.421875 C 9.890625 -3.578125 9.675781 -2.800781 9.25 -2.09375 C 8.820312 -1.382812 8.242188 -0.820312 7.515625 -0.40625 C 6.796875 0.0078125 6.007812 0.21875 5.15625 0.21875 C 4.289062 0.21875 3.492188 0.0078125 2.765625 -0.40625 C 2.046875 -0.820312 1.472656 -1.382812 1.046875 -2.09375 C 0.628906 -2.800781 0.421875 -3.578125 0.421875 -4.421875 C 0.421875 -5.253906 0.628906 -6.023438 1.046875 -6.734375 C 1.472656 -7.441406 2.046875 -8 2.765625 -8.40625 C 3.492188 -8.820312 4.289062 -9.03125 5.15625 -9.03125 Z M 5.15625 -1.671875 C 5.625 -1.671875 6.054688 -1.796875 6.453125 -2.046875 C 6.859375 -2.296875 7.179688 -2.628906 7.421875 -3.046875 C 7.660156 -3.460938 7.78125 -3.921875 7.78125 -4.421875 C 7.78125 -4.910156 7.660156 -5.363281 7.421875 -5.78125 C 7.179688 -6.195312 6.859375 -6.523438 6.453125 -6.765625 C 6.054688 -7.015625 5.625 -7.140625 5.15625 -7.140625 C 4.675781 -7.140625 4.234375 -7.015625 3.828125 -6.765625 C 3.429688 -6.523438 3.113281 -6.195312 2.875 -5.78125 C 2.644531 -5.363281 2.53125 -4.910156 2.53125 -4.421875 C 2.53125 -3.921875 2.644531 -3.460938 2.875 -3.046875 C 3.113281 -2.628906 3.429688 -2.296875 3.828125 -2.046875 C 4.234375 -1.796875 4.675781 -1.671875 5.15625 -1.671875 Z M 5.15625 -1.671875 "/></g></g></g><g fill="#51a6ff" fill-opacity="1"><g transform="translate(83.081243, 197.696938)"><g><path d="M 2.9375 -2.84375 L 2.9375 0 L 0.84375 0 L 0.84375 -8.828125 L 4.421875 -8.828125 C 5.160156 -8.828125 5.78125 -8.703125 6.28125 -8.453125 C 6.789062 -8.210938 7.164062 -7.867188 7.40625 -7.421875 C 7.65625 -6.972656 7.78125 -6.457031 7.78125 -5.875 C 7.78125 -5.238281 7.617188 -4.660156 7.296875 -4.140625 C 6.984375 -3.628906 6.539062 -3.257812 5.96875 -3.03125 L 8.203125 0 L 5.78125 0 L 3.8125 -2.84375 Z M 4.40625 -4.734375 C 4.757812 -4.734375 5.054688 -4.832031 5.296875 -5.03125 C 5.546875 -5.226562 5.671875 -5.492188 5.671875 -5.828125 C 5.671875 -6.203125 5.550781 -6.476562 5.3125 -6.65625 C 5.082031 -6.84375 4.78125 -6.9375 4.40625 -6.9375 L 2.9375 -6.9375 L 2.9375 -4.734375 Z M 4.40625 -4.734375 "/></g></g></g><g fill="#51a6ff" fill-opacity="1"><g transform="translate(94.262668, 197.696938)"><g><path d="M 7.140625 -6.9375 L 4.828125 -6.9375 L 4.828125 0 L 2.734375 0 L 2.734375 -6.9375 L 0.421875 -6.9375 L 0.421875 -8.828125 L 7.140625 -8.828125 Z M 7.140625 -6.9375 "/></g></g></g><g fill="#51a6ff" fill-opacity="1"><g transform="translate(104.393034, 197.696938)"><g><path d="M 2.859375 -1.46875 L 2.3125 0 L 0 0 L 3.65625 -8.828125 L 5.59375 -8.828125 L 9.25 0 L 6.9375 0 L 6.375 -1.46875 Z M 4.625 -6.09375 L 3.578125 -3.359375 L 5.65625 -3.359375 Z M 4.625 -6.09375 "/></g></g></g><g fill="#51a6ff" fill-opacity="1"><g transform="translate(116.201705, 197.696938)"><g><path d="M 6.3125 0 L 0.84375 0 L 0.84375 -8.828125 L 2.9375 -8.828125 L 2.9375 -1.890625 L 6.3125 -1.890625 Z M 6.3125 0 "/></g></g></g><g fill="#51a6ff" fill-opacity="1"><g transform="translate(125.492918, 197.696938)"><g/></g></g><g fill="#51a6ff" fill-opacity="1"><g transform="translate(129.579668, 197.696938)"><g><path d="M 8.828125 0 L 8.203125 -5.046875 L 6.3125 0 L 5.046875 0 L 3.15625 -5.046875 L 2.53125 0 L 0.421875 0 L 1.46875 -8.828125 L 3.578125 -8.828125 L 5.671875 -3.578125 L 7.78125 -8.828125 L 9.890625 -8.828125 L 10.9375 0 Z M 8.828125 0 "/></g></g></g><g fill="#51a6ff" fill-opacity="1"><g transform="translate(143.490468, 197.696938)"><g><path d="M 5.5625 -11.5625 L 3.671875 -9.671875 L 2.421875 -9.671875 L 3.46875 -11.5625 Z M 2.9375 -5.359375 L 5.875 -5.359375 L 5.875 -3.46875 L 2.9375 -3.46875 L 2.9375 -1.890625 L 6.515625 -1.890625 L 6.515625 0 L 0.84375 0 L 0.84375 -8.828125 L 6.515625 -8.828125 L 6.515625 -6.9375 L 2.9375 -6.9375 Z M 2.9375 -5.359375 "/></g></g></g><g fill="#51a6ff" fill-opacity="1"><g transform="translate(153.19701, 197.696938)"><g><path d="M 4.1875 -8.828125 C 5.164062 -8.828125 6.003906 -8.628906 6.703125 -8.234375 C 7.398438 -7.847656 7.925781 -7.320312 8.28125 -6.65625 C 8.644531 -5.988281 8.828125 -5.242188 8.828125 -4.421875 C 8.828125 -3.585938 8.644531 -2.835938 8.28125 -2.171875 C 7.914062 -1.503906 7.378906 -0.972656 6.671875 -0.578125 C 5.972656 -0.191406 5.144531 0 4.1875 0 L 0.84375 0 L 0.84375 -8.828125 Z M 4.34375 -1.890625 C 4.75 -1.890625 5.132812 -2.003906 5.5 -2.234375 C 5.863281 -2.460938 6.160156 -2.769531 6.390625 -3.15625 C 6.617188 -3.539062 6.734375 -3.960938 6.734375 -4.421875 C 6.734375 -4.867188 6.617188 -5.285156 6.390625 -5.671875 C 6.160156 -6.054688 5.863281 -6.363281 5.5 -6.59375 C 5.132812 -6.820312 4.75 -6.9375 4.34375 -6.9375 L 2.9375 -6.9375 L 2.9375 -1.890625 Z M 4.34375 -1.890625 "/></g></g></g><g fill="#51a6ff" fill-opacity="1"><g transform="translate(165.005682, 197.696938)"><g><path d="M 0.84375 -8.828125 L 2.9375 -8.828125 L 2.9375 0 L 0.84375 0 Z M 0.84375 -8.828125 "/></g></g></g><g fill="#51a6ff" fill-opacity="1"><g transform="translate(171.34713, 197.696938)"><g><path d="M 5.25 -1.671875 C 5.675781 -1.671875 6.070312 -1.765625 6.4375 -1.953125 C 6.8125 -2.140625 7.128906 -2.390625 7.390625 -2.703125 L 8.203125 -0.859375 C 7.828125 -0.523438 7.367188 -0.257812 6.828125 -0.0625 C 6.296875 0.125 5.769531 0.21875 5.25 0.21875 C 4.375 0.21875 3.566406 0.0078125 2.828125 -0.40625 C 2.085938 -0.820312 1.5 -1.382812 1.0625 -2.09375 C 0.632812 -2.800781 0.421875 -3.578125 0.421875 -4.421875 C 0.421875 -5.253906 0.632812 -6.023438 1.0625 -6.734375 C 1.5 -7.441406 2.085938 -8 2.828125 -8.40625 C 3.566406 -8.820312 4.375 -9.03125 5.25 -9.03125 C 5.78125 -9.03125 6.3125 -8.9375 6.84375 -8.75 C 7.375 -8.570312 7.828125 -8.316406 8.203125 -7.984375 L 7.390625 -6.125 C 7.128906 -6.445312 6.816406 -6.695312 6.453125 -6.875 C 6.085938 -7.050781 5.6875 -7.140625 5.25 -7.140625 C 4.757812 -7.140625 4.304688 -7.015625 3.890625 -6.765625 C 3.472656 -6.523438 3.140625 -6.195312 2.890625 -5.78125 C 2.648438 -5.363281 2.53125 -4.910156 2.53125 -4.421875 C 2.53125 -3.921875 2.648438 -3.460938 2.890625 -3.046875 C 3.140625 -2.628906 3.472656 -2.296875 3.890625 -2.046875 C 4.304688 -1.796875 4.757812 -1.671875 5.25 -1.671875 Z M 5.25 -1.671875 "/></g></g></g><g fill="#51a6ff" fill-opacity="1"><g transform="translate(182.528555, 197.696938)"><g><path d="M 5.15625 -9.03125 C 6.007812 -9.03125 6.796875 -8.820312 7.515625 -8.40625 C 8.242188 -8 8.820312 -7.441406 9.25 -6.734375 C 9.675781 -6.023438 9.890625 -5.253906 9.890625 -4.421875 C 9.890625 -3.578125 9.675781 -2.800781 9.25 -2.09375 C 8.820312 -1.382812 8.242188 -0.820312 7.515625 -0.40625 C 6.796875 0.0078125 6.007812 0.21875 5.15625 0.21875 C 4.289062 0.21875 3.492188 0.0078125 2.765625 -0.40625 C 2.046875 -0.820312 1.472656 -1.382812 1.046875 -2.09375 C 0.628906 -2.800781 0.421875 -3.578125 0.421875 -4.421875 C 0.421875 -5.253906 0.628906 -6.023438 1.046875 -6.734375 C 1.472656 -7.441406 2.046875 -8 2.765625 -8.40625 C 3.492188 -8.820312 4.289062 -9.03125 5.15625 -9.03125 Z M 5.15625 -1.671875 C 5.625 -1.671875 6.054688 -1.796875 6.453125 -2.046875 C 6.859375 -2.296875 7.179688 -2.628906 7.421875 -3.046875 C 7.660156 -3.460938 7.78125 -3.921875 7.78125 -4.421875 C 7.78125 -4.910156 7.660156 -5.363281 7.421875 -5.78125 C 7.179688 -6.195312 6.859375 -6.523438 6.453125 -6.765625 C 6.054688 -7.015625 5.625 -7.140625 5.15625 -7.140625 C 4.675781 -7.140625 4.234375 -7.015625 3.828125 -6.765625 C 3.429688 -6.523438 3.113281 -6.195312 2.875 -5.78125 C 2.644531 -5.363281 2.53125 -4.910156 2.53125 -4.421875 C 2.53125 -3.921875 2.644531 -3.460938 2.875 -3.046875 C 3.113281 -2.628906 3.429688 -2.296875 3.828125 -2.046875 C 4.234375 -1.796875 4.675781 -1.671875 5.15625 -1.671875 Z M 5.15625 -1.671875 "/></g></g></g><g fill="#51a6ff" fill-opacity="1"><g transform="translate(195.388296, 197.696938)"><g/></g></g><g fill="#51a6ff" fill-opacity="1"><g transform="translate(199.475047, 197.696938)"><g><path d="M 5.15625 -9.03125 C 6.007812 -9.03125 6.796875 -8.820312 7.515625 -8.40625 C 8.242188 -8 8.820312 -7.441406 9.25 -6.734375 C 9.675781 -6.023438 9.890625 -5.253906 9.890625 -4.421875 C 9.890625 -3.578125 9.675781 -2.800781 9.25 -2.09375 C 8.820312 -1.382812 8.242188 -0.820312 7.515625 -0.40625 C 6.796875 0.0078125 6.007812 0.21875 5.15625 0.21875 C 4.289062 0.21875 3.492188 0.0078125 2.765625 -0.40625 C 2.046875 -0.820312 1.472656 -1.382812 1.046875 -2.09375 C 0.628906 -2.800781 0.421875 -3.578125 0.421875 -4.421875 C 0.421875 -5.253906 0.628906 -6.023438 1.046875 -6.734375 C 1.472656 -7.441406 2.046875 -8 2.765625 -8.40625 C 3.492188 -8.820312 4.289062 -9.03125 5.15625 -9.03125 Z M 5.15625 -1.671875 C 5.625 -1.671875 6.054688 -1.796875 6.453125 -2.046875 C 6.859375 -2.296875 7.179688 -2.628906 7.421875 -3.046875 C 7.660156 -3.460938 7.78125 -3.921875 7.78125 -4.421875 C 7.78125 -4.910156 7.660156 -5.363281 7.421875 -5.78125 C 7.179688 -6.195312 6.859375 -6.523438 6.453125 -6.765625 C 6.054688 -7.015625 5.625 -7.140625 5.15625 -7.140625 C 4.675781 -7.140625 4.234375 -7.015625 3.828125 -6.765625 C 3.429688 -6.523438 3.113281 -6.195312 2.875 -5.78125 C 2.644531 -5.363281 2.53125 -4.910156 2.53125 -4.421875 C 2.53125 -3.921875 2.644531 -3.460938 2.875 -3.046875 C 3.113281 -2.628906 3.429688 -2.296875 3.828125 -2.046875 C 4.234375 -1.796875 4.675781 -1.671875 5.15625 -1.671875 Z M 5.15625 -1.671875 "/></g></g></g><g fill="#51a6ff" fill-opacity="1"><g transform="translate(212.334788, 197.696938)"><g><path d="M 9.03125 0 L 6.9375 0 L 2.9375 -5.46875 L 2.9375 0 L 0.84375 0 L 0.84375 -8.828125 L 2.9375 -8.828125 L 6.9375 -3.359375 L 6.9375 -8.828125 L 9.03125 -8.828125 Z M 9.03125 0 "/></g></g></g><g fill="#51a6ff" fill-opacity="1"><g transform="translate(224.779189, 197.696938)"><g><path d="M 6.3125 0 L 0.84375 0 L 0.84375 -8.828125 L 2.9375 -8.828125 L 2.9375 -1.890625 L 6.3125 -1.890625 Z M 6.3125 0 "/></g></g></g><g fill="#51a6ff" fill-opacity="1"><g transform="translate(234.070402, 197.696938)"><g><path d="M 0.84375 -8.828125 L 2.9375 -8.828125 L 2.9375 0 L 0.84375 0 Z M 0.84375 -8.828125 "/></g></g></g><g fill="#51a6ff" fill-opacity="1"><g transform="translate(240.411851, 197.696938)"><g><path d="M 9.03125 0 L 6.9375 0 L 2.9375 -5.46875 L 2.9375 0 L 0.84375 0 L 0.84375 -8.828125 L 2.9375 -8.828125 L 6.9375 -3.359375 L 6.9375 -8.828125 L 9.03125 -8.828125 Z M 9.03125 0 "/></g></g></g><g fill="#51a6ff" fill-opacity="1"><g transform="translate(252.856263, 197.696938)"><g><path d="M 2.9375 -5.359375 L 5.875 -5.359375 L 5.875 -3.46875 L 2.9375 -3.46875 L 2.9375 -1.890625 L 6.515625 -1.890625 L 6.515625 0 L 0.84375 0 L 0.84375 -8.828125 L 6.515625 -8.828125 L 6.515625 -6.9375 L 2.9375 -6.9375 Z M 2.9375 -5.359375 "/></g></g></g><g fill="#004aad" fill-opacity="1"><g transform="translate(18.8511, 165.292225)"><g><path d="M 25.984375 0 L 24.109375 -14.84375 L 18.546875 0 L 14.84375 0 L 9.28125 -14.84375 L 7.4375 0 L 1.25 0 L 4.34375 -25.984375 L 10.53125 -25.984375 L 16.703125 -10.53125 L 22.890625 -25.984375 L 29.078125 -25.984375 L 32.171875 0 Z M 25.984375 0 "/></g></g></g><g fill="#004aad" fill-opacity="1"><g transform="translate(54.138141, 165.292225)"><g><path d="M 8.65625 -15.765625 L 17.3125 -15.765625 L 17.3125 -10.203125 L 8.65625 -10.203125 L 8.65625 -5.5625 L 19.171875 -5.5625 L 19.171875 0 L 2.46875 0 L 2.46875 -25.984375 L 19.171875 -25.984375 L 19.171875 -20.40625 L 8.65625 -20.40625 Z M 8.65625 -15.765625 "/></g></g></g><g fill="#004aad" fill-opacity="1"><g transform="translate(77.056113, 165.292225)"><g><path d="M 12.3125 -25.984375 C 15.207031 -25.984375 17.679688 -25.410156 19.734375 -24.265625 C 21.785156 -23.117188 23.335938 -21.5625 24.390625 -19.59375 C 25.453125 -17.632812 25.984375 -15.4375 25.984375 -13 C 25.984375 -10.5625 25.441406 -8.359375 24.359375 -6.390625 C 23.285156 -4.421875 21.710938 -2.863281 19.640625 -1.71875 C 17.566406 -0.570312 15.125 0 12.3125 0 L 2.46875 0 L 2.46875 -25.984375 Z M 12.765625 -5.5625 C 13.960938 -5.5625 15.101562 -5.894531 16.1875 -6.5625 C 17.269531 -7.238281 18.140625 -8.144531 18.796875 -9.28125 C 19.460938 -10.425781 19.796875 -11.664062 19.796875 -13 C 19.796875 -14.320312 19.460938 -15.550781 18.796875 -16.6875 C 18.140625 -17.832031 17.269531 -18.738281 16.1875 -19.40625 C 15.101562 -20.070312 13.960938 -20.40625 12.765625 -20.40625 L 8.65625 -20.40625 L 8.65625 -5.5625 Z M 12.765625 -5.5625 "/></g></g></g><g fill="#004aad" fill-opacity="1"><g transform="translate(106.158625, 165.292225)"><g><path d="M 2.46875 -25.984375 L 8.65625 -25.984375 L 8.65625 0 L 2.46875 0 Z M 2.46875 -25.984375 "/></g></g></g><g fill="#004aad" fill-opacity="1"><g transform="translate(119.17636, 165.292225)"><g><path d="M 8.65625 -8.359375 L 8.65625 0 L 2.46875 0 L 2.46875 -25.984375 L 13 -25.984375 C 15.1875 -25.984375 17.019531 -25.617188 18.5 -24.890625 C 19.976562 -24.160156 21.078125 -23.140625 21.796875 -21.828125 C 22.523438 -20.523438 22.890625 -19.019531 22.890625 -17.3125 C 22.890625 -15.425781 22.421875 -13.722656 21.484375 -12.203125 C 20.546875 -10.679688 19.238281 -9.585938 17.5625 -8.921875 L 24.109375 0 L 17 0 L 11.21875 -8.359375 Z M 12.9375 -13.921875 C 14 -13.921875 14.890625 -14.207031 15.609375 -14.78125 C 16.335938 -15.363281 16.703125 -16.15625 16.703125 -17.15625 C 16.703125 -18.25 16.351562 -19.0625 15.65625 -19.59375 C 14.957031 -20.132812 14.050781 -20.40625 12.9375 -20.40625 L 8.65625 -20.40625 L 8.65625 -13.921875 Z M 12.9375 -13.921875 "/></g></g></g><g fill="#004aad" fill-opacity="1"><g transform="translate(146.433486, 165.292225)"><g><path d="M 8.65625 -15.765625 L 17.3125 -15.765625 L 17.3125 -10.203125 L 8.65625 -10.203125 L 8.65625 -5.5625 L 19.171875 -5.5625 L 19.171875 0 L 2.46875 0 L 2.46875 -25.984375 L 19.171875 -25.984375 L 19.171875 -20.40625 L 8.65625 -20.40625 Z M 8.65625 -15.765625 "/></g></g></g><g fill="#004aad" fill-opacity="1"><g transform="translate(169.351458, 165.292225)"><g><path d="M 12.375 -16.359375 C 14.695312 -15.859375 16.597656 -15.296875 18.078125 -14.671875 C 19.554688 -14.046875 20.726562 -13.1875 21.59375 -12.09375 C 22.457031 -11 22.890625 -9.570312 22.890625 -7.8125 C 22.890625 -6.195312 22.46875 -4.753906 21.625 -3.484375 C 20.789062 -2.210938 19.554688 -1.207031 17.921875 -0.46875 C 16.296875 0.257812 14.34375 0.625 12.0625 0.625 C 9.882812 0.625 7.847656 0.207031 5.953125 -0.625 C 4.054688 -1.46875 2.488281 -2.5 1.25 -3.71875 L 4.0625 -8.65625 C 5.375 -7.34375 6.726562 -6.394531 8.125 -5.8125 C 9.519531 -5.226562 10.832031 -4.9375 12.0625 -4.9375 C 15.15625 -4.9375 16.703125 -5.769531 16.703125 -7.4375 C 16.703125 -8.0625 16.382812 -8.570312 15.75 -8.96875 C 15.125 -9.375 14 -9.71875 12.375 -10 C 8.863281 -10.613281 6.285156 -11.570312 4.640625 -12.875 C 2.992188 -14.1875 2.171875 -15.953125 2.171875 -18.171875 C 2.171875 -19.703125 2.582031 -21.109375 3.40625 -22.390625 C 4.226562 -23.671875 5.421875 -24.6875 6.984375 -25.4375 C 8.546875 -26.195312 10.363281 -26.578125 12.4375 -26.578125 C 13.625 -26.578125 15.125 -26.359375 16.9375 -25.921875 C 18.757812 -25.492188 20.40625 -24.609375 21.875 -23.265625 L 19.171875 -18.40625 C 18.441406 -19.132812 17.484375 -19.75 16.296875 -20.25 C 15.117188 -20.757812 13.8125 -21.015625 12.375 -21.015625 C 11.257812 -21.015625 10.3125 -20.816406 9.53125 -20.421875 C 8.75 -20.035156 8.359375 -19.503906 8.359375 -18.828125 C 8.359375 -18.410156 8.472656 -18.0625 8.703125 -17.78125 C 8.929688 -17.5 9.335938 -17.242188 9.921875 -17.015625 C 10.503906 -16.796875 11.320312 -16.578125 12.375 -16.359375 Z M 12.375 -16.359375 "/></g></g></g><g fill="#004aad" fill-opacity="1"><g transform="translate(195.361695, 165.292225)"><g><path d="M 8.65625 -15.765625 L 17.3125 -15.765625 L 17.3125 -10.203125 L 8.65625 -10.203125 L 8.65625 -5.5625 L 19.171875 -5.5625 L 19.171875 0 L 2.46875 0 L 2.46875 -25.984375 L 19.171875 -25.984375 L 19.171875 -20.40625 L 8.65625 -20.40625 Z M 8.65625 -15.765625 "/></g></g></g><g fill="#004aad" fill-opacity="1"><g transform="translate(218.279667, 165.292225)"><g><path d="M 8.65625 -8.359375 L 8.65625 0 L 2.46875 0 L 2.46875 -25.984375 L 13 -25.984375 C 15.1875 -25.984375 17.019531 -25.617188 18.5 -24.890625 C 19.976562 -24.160156 21.078125 -23.140625 21.796875 -21.828125 C 22.523438 -20.523438 22.890625 -19.019531 22.890625 -17.3125 C 22.890625 -15.425781 22.421875 -13.722656 21.484375 -12.203125 C 20.546875 -10.679688 19.238281 -9.585938 17.5625 -8.921875 L 24.109375 0 L 17 0 L 11.21875 -8.359375 Z M 12.9375 -13.921875 C 14 -13.921875 14.890625 -14.207031 15.609375 -14.78125 C 16.335938 -15.363281 16.703125 -16.15625 16.703125 -17.15625 C 16.703125 -18.25 16.351562 -19.0625 15.65625 -19.59375 C 14.957031 -20.132812 14.050781 -20.40625 12.9375 -20.40625 L 8.65625 -20.40625 L 8.65625 -13.921875 Z M 12.9375 -13.921875 "/></g></g></g><g fill="#004aad" fill-opacity="1"><g transform="translate(245.536793, 165.292225)"><g><path d="M 6.8125 -25.984375 L 13 -9.90625 L 19.171875 -25.984375 L 25.984375 -25.984375 L 15.46875 0 L 10.53125 0 L 0 -25.984375 Z M 6.8125 -25.984375 "/></g></g></g><g fill="#004aad" fill-opacity="1"><g transform="translate(273.417352, 165.292225)"><g><path d="M 8.421875 -4.34375 L 6.8125 0 L 0 0 L 10.75 -25.984375 L 16.453125 -25.984375 L 27.203125 0 L 20.40625 0 L 18.78125 -4.34375 Z M 13.609375 -17.9375 L 10.546875 -9.90625 L 16.65625 -9.90625 Z M 13.609375 -17.9375 "/></g></g></g></svg>